<svg width="580" height="191" viewBox="0 0 580 191" fill="none" xmlns="http://www.w3.org/2000/svg">
<rect y="30.251" width="580" height="160" rx="14" fill="#F4F4F5"/>
<path d="M53.35 114.526C53.086 114.598 52.666 114.67 52.09 114.742C51.538 114.814 50.986 114.85 50.434 114.85C49.882 114.85 49.39 114.802 48.958 114.706C48.55 114.634 48.202 114.49 47.914 114.274C47.626 114.058 47.41 113.758 47.266 113.374C47.122 112.99 47.05 112.486 47.05 111.862V106.246H40.138V114.526C39.874 114.598 39.454 114.67 38.878 114.742C38.326 114.814 37.774 114.85 37.222 114.85C36.67 114.85 36.178 114.802 35.746 114.706C35.338 114.634 34.99 114.49 34.702 114.274C34.414 114.058 34.198 113.758 34.054 113.374C33.91 112.99 33.838 112.486 33.838 111.862V92.8544C34.102 92.8064 34.522 92.7464 35.098 92.6744C35.674 92.5784 36.226 92.5304 36.754 92.5304C37.306 92.5304 37.786 92.5784 38.194 92.6744C38.626 92.7464 38.986 92.8904 39.274 93.1064C39.562 93.3224 39.778 93.6224 39.922 94.0064C40.066 94.3904 40.138 94.8944 40.138 95.5184V101.278H47.05V92.8544C47.314 92.8064 47.734 92.7464 48.31 92.6744C48.886 92.5784 49.438 92.5304 49.966 92.5304C50.518 92.5304 50.998 92.5784 51.406 92.6744C51.838 92.7464 52.198 92.8904 52.486 93.1064C52.774 93.3224 52.99 93.6224 53.134 94.0064C53.278 94.3904 53.35 94.8944 53.35 95.5184V114.526ZM57.4135 92.3144C57.4135 91.4024 57.7135 90.6344 58.3135 90.0104C58.9375 89.3864 59.7535 89.0744 60.7615 89.0744C61.7695 89.0744 62.5735 89.3864 63.1735 90.0104C63.7975 90.6344 64.1095 91.4024 64.1095 92.3144C64.1095 93.2264 63.7975 93.9944 63.1735 94.6184C62.5735 95.2424 61.7695 95.5544 60.7615 95.5544C59.7535 95.5544 58.9375 95.2424 58.3135 94.6184C57.7135 93.9944 57.4135 93.2264 57.4135 92.3144ZM63.8215 114.634C63.5575 114.682 63.1615 114.742 62.6335 114.814C62.1295 114.91 61.6135 114.958 61.0855 114.958C60.5575 114.958 60.0775 114.922 59.6455 114.85C59.2375 114.778 58.8895 114.634 58.6015 114.418C58.3135 114.202 58.0855 113.914 57.9175 113.554C57.7735 113.17 57.7015 112.678 57.7015 112.078V97.4264C57.9655 97.3784 58.3495 97.3184 58.8535 97.2464C59.3815 97.1504 59.9095 97.1024 60.4375 97.1024C60.9655 97.1024 61.4335 97.1384 61.8415 97.2104C62.2735 97.2824 62.6335 97.4264 62.9215 97.6424C63.2095 97.8584 63.4255 98.1584 63.5695 98.5424C63.7375 98.9024 63.8215 99.3824 63.8215 99.9824V114.634ZM74.3777 93.7904C74.3777 94.3424 74.3657 95.1464 74.3417 96.2024C74.3177 97.2344 74.2697 98.3624 74.1977 99.5864C74.1257 100.786 74.0297 101.998 73.9097 103.222C73.7897 104.422 73.6457 105.466 73.4777 106.354C73.3817 106.426 73.2377 106.498 73.0457 106.57C72.8537 106.642 72.6497 106.702 72.4337 106.75C72.2177 106.798 72.0017 106.834 71.7857 106.858C71.5697 106.882 71.3777 106.894 71.2097 106.894C70.5137 106.894 69.9257 106.786 69.4457 106.57C68.9897 106.354 68.7017 105.934 68.5817 105.31C68.4617 104.758 68.3537 103.918 68.2577 102.79C68.1857 101.662 68.1137 100.438 68.0417 99.1184C67.9697 97.7984 67.9097 96.4904 67.8617 95.1944C67.8377 93.8984 67.8257 92.7944 67.8257 91.8824C68.3057 91.6184 68.8457 91.4144 69.4457 91.2704C70.0697 91.1024 70.6817 91.0184 71.2817 91.0184C72.2657 91.0184 73.0217 91.2464 73.5497 91.7024C74.1017 92.1584 74.3777 92.8544 74.3777 93.7904ZM67.7537 111.934C67.7537 110.95 68.0537 110.146 68.6537 109.522C69.2777 108.874 70.1297 108.55 71.2097 108.55C72.2897 108.55 73.1297 108.874 73.7297 109.522C74.3537 110.146 74.6657 110.95 74.6657 111.934C74.6657 112.918 74.3537 113.734 73.7297 114.382C73.1297 115.006 72.2897 115.318 71.2097 115.318C70.1297 115.318 69.2777 115.006 68.6537 114.382C68.0537 113.734 67.7537 112.918 67.7537 111.934ZM92.4154 114.526C92.1514 114.598 91.7314 114.67 91.1554 114.742C90.6034 114.814 90.0514 114.85 89.4994 114.85C88.9474 114.85 88.4554 114.802 88.0234 114.706C87.6154 114.634 87.2674 114.49 86.9794 114.274C86.6914 114.058 86.4754 113.758 86.3314 113.374C86.1874 112.99 86.1154 112.486 86.1154 111.862V92.8544C86.3794 92.8064 86.7994 92.7464 87.3754 92.6744C87.9514 92.5784 88.5034 92.5304 89.0314 92.5304C89.5834 92.5304 90.0634 92.5784 90.4714 92.6744C90.9034 92.7464 91.2634 92.8904 91.5514 93.1064C91.8394 93.3224 92.0554 93.6224 92.1994 94.0064C92.3434 94.3904 92.4154 94.8944 92.4154 95.5184V114.526ZM111.311 110.782C111.719 110.782 112.163 110.746 112.643 110.674C113.147 110.578 113.519 110.458 113.759 110.314V107.434L111.167 107.65C110.495 107.698 109.943 107.842 109.511 108.082C109.079 108.322 108.863 108.682 108.863 109.162C108.863 109.642 109.043 110.038 109.403 110.35C109.787 110.638 110.423 110.782 111.311 110.782ZM111.023 96.6344C112.319 96.6344 113.495 96.7664 114.551 97.0304C115.631 97.2944 116.543 97.7024 117.287 98.2544C118.055 98.7824 118.643 99.4664 119.051 100.306C119.459 101.122 119.663 102.094 119.663 103.222V111.286C119.663 111.91 119.483 112.426 119.123 112.834C118.787 113.218 118.379 113.554 117.899 113.842C116.339 114.778 114.143 115.246 111.311 115.246C110.039 115.246 108.887 115.126 107.855 114.886C106.847 114.646 105.971 114.286 105.227 113.806C104.507 113.326 103.943 112.714 103.535 111.97C103.151 111.226 102.959 110.362 102.959 109.378C102.959 107.722 103.451 106.45 104.435 105.562C105.419 104.674 106.943 104.122 109.007 103.906L113.723 103.402V103.15C113.723 102.454 113.411 101.962 112.787 101.674C112.187 101.362 111.311 101.206 110.159 101.206C109.247 101.206 108.359 101.302 107.495 101.494C106.631 101.686 105.851 101.926 105.155 102.214C104.843 101.998 104.579 101.674 104.363 101.242C104.147 100.786 104.039 100.318 104.039 99.8384C104.039 99.2144 104.183 98.7224 104.471 98.3624C104.783 97.9784 105.251 97.6544 105.875 97.3904C106.571 97.1264 107.387 96.9344 108.323 96.8144C109.283 96.6944 110.183 96.6344 111.023 96.6344ZM131.793 96.6344C132.777 96.6344 133.737 96.7784 134.673 97.0664C135.633 97.3304 136.461 97.7384 137.157 98.2904C137.877 97.8104 138.681 97.4144 139.569 97.1024C140.481 96.7904 141.573 96.6344 142.845 96.6344C143.757 96.6344 144.645 96.7544 145.509 96.9944C146.397 97.2344 147.177 97.6184 147.849 98.1464C148.545 98.6504 149.097 99.3344 149.505 100.198C149.913 101.038 150.117 102.07 150.117 103.294V114.634C149.877 114.706 149.493 114.778 148.965 114.85C148.461 114.922 147.933 114.958 147.381 114.958C146.853 114.958 146.373 114.922 145.941 114.85C145.533 114.778 145.185 114.634 144.897 114.418C144.609 114.202 144.381 113.914 144.213 113.554C144.069 113.17 143.997 112.678 143.997 112.078V103.474C143.997 102.754 143.793 102.238 143.385 101.926C142.977 101.59 142.425 101.422 141.729 101.422C141.393 101.422 141.033 101.506 140.649 101.674C140.265 101.818 139.977 101.974 139.785 102.142C139.809 102.238 139.821 102.334 139.821 102.43C139.821 102.502 139.821 102.574 139.821 102.646V114.634C139.557 114.706 139.161 114.778 138.633 114.85C138.129 114.922 137.613 114.958 137.085 114.958C136.557 114.958 136.077 114.922 135.645 114.85C135.237 114.778 134.889 114.634 134.601 114.418C134.313 114.202 134.085 113.914 133.917 113.554C133.773 113.17 133.701 112.678 133.701 112.078V103.474C133.701 102.754 133.473 102.238 133.017 101.926C132.585 101.59 132.057 101.422 131.433 101.422C131.001 101.422 130.629 101.494 130.317 101.638C130.005 101.758 129.741 101.878 129.525 101.998V114.634C129.285 114.706 128.901 114.778 128.373 114.85C127.869 114.922 127.341 114.958 126.789 114.958C126.261 114.958 125.781 114.922 125.349 114.85C124.941 114.778 124.593 114.634 124.305 114.418C124.017 114.202 123.789 113.914 123.621 113.554C123.477 113.17 123.405 112.678 123.405 112.078V101.206C123.405 100.558 123.537 100.042 123.801 99.6584C124.089 99.2744 124.473 98.9144 124.953 98.5784C125.769 98.0024 126.777 97.5344 127.977 97.1744C129.201 96.8144 130.473 96.6344 131.793 96.6344ZM172.974 114.526C172.71 114.598 172.302 114.67 171.75 114.742C171.198 114.814 170.658 114.85 170.13 114.85C169.026 114.85 168.198 114.67 167.646 114.31C167.094 113.926 166.818 113.134 166.818 111.934V107.074C166.218 106.186 165.57 105.202 164.874 104.122C164.178 103.042 163.494 101.938 162.822 100.81C162.15 99.6824 161.526 98.5784 160.95 97.4984C160.374 96.3944 159.906 95.3864 159.546 94.4744C159.858 94.0424 160.278 93.6464 160.806 93.2864C161.358 92.9264 162.03 92.7464 162.822 92.7464C163.758 92.7464 164.514 92.9384 165.09 93.3224C165.69 93.7064 166.254 94.4264 166.782 95.4824L169.77 101.494H169.986C170.322 100.75 170.61 100.078 170.85 99.4784C171.114 98.8544 171.366 98.2424 171.606 97.6424C171.846 97.0184 172.098 96.3824 172.362 95.7344C172.626 95.0624 172.926 94.2944 173.262 93.4304C173.694 93.2144 174.174 93.0464 174.702 92.9264C175.23 92.8064 175.734 92.7464 176.214 92.7464C177.054 92.7464 177.762 92.9744 178.338 93.4304C178.938 93.8624 179.238 94.5224 179.238 95.4104C179.238 95.6984 179.178 96.0464 179.058 96.4544C178.938 96.8624 178.662 97.4864 178.23 98.3264C177.798 99.1424 177.162 100.258 176.322 101.674C175.506 103.09 174.39 104.938 172.974 107.218V114.526ZM186.232 114.634C185.992 114.706 185.608 114.778 185.08 114.85C184.576 114.922 184.048 114.958 183.496 114.958C182.968 114.958 182.488 114.922 182.056 114.85C181.648 114.778 181.3 114.634 181.012 114.418C180.724 114.202 180.496 113.914 180.328 113.554C180.184 113.17 180.112 112.678 180.112 112.078V101.278C180.112 100.726 180.208 100.258 180.4 99.8744C180.616 99.4664 180.916 99.1064 181.3 98.7944C181.684 98.4824 182.152 98.2064 182.704 97.9664C183.28 97.7024 183.892 97.4744 184.54 97.2824C185.188 97.0904 185.86 96.9464 186.556 96.8504C187.252 96.7304 187.948 96.6704 188.644 96.6704C189.796 96.6704 190.708 96.8984 191.38 97.3544C192.052 97.7864 192.388 98.5064 192.388 99.5144C192.388 99.8504 192.34 100.186 192.244 100.522C192.148 100.834 192.028 101.122 191.884 101.386C191.38 101.386 190.864 101.41 190.336 101.458C189.808 101.506 189.292 101.578 188.788 101.674C188.284 101.77 187.804 101.878 187.348 101.998C186.916 102.094 186.544 102.214 186.232 102.358V114.634ZM212.353 105.922C212.353 107.41 212.125 108.742 211.669 109.918C211.213 111.07 210.565 112.042 209.725 112.834C208.909 113.626 207.925 114.226 206.773 114.634C205.621 115.042 204.337 115.246 202.921 115.246C201.505 115.246 200.221 115.03 199.069 114.598C197.917 114.166 196.921 113.554 196.081 112.762C195.265 111.946 194.629 110.962 194.173 109.81C193.717 108.658 193.489 107.362 193.489 105.922C193.489 104.506 193.717 103.222 194.173 102.07C194.629 100.918 195.265 99.9464 196.081 99.1544C196.921 98.3384 197.917 97.7144 199.069 97.2824C200.221 96.8504 201.505 96.6344 202.921 96.6344C204.337 96.6344 205.621 96.8624 206.773 97.3184C207.925 97.7504 208.909 98.3744 209.725 99.1904C210.565 99.9824 211.213 100.954 211.669 102.106C212.125 103.258 212.353 104.53 212.353 105.922ZM199.753 105.922C199.753 107.386 200.029 108.514 200.581 109.306C201.157 110.074 201.949 110.458 202.957 110.458C203.965 110.458 204.733 110.062 205.261 109.27C205.813 108.478 206.089 107.362 206.089 105.922C206.089 104.482 205.813 103.378 205.261 102.61C204.709 101.818 203.929 101.422 202.921 101.422C201.913 101.422 201.133 101.818 200.581 102.61C200.029 103.378 199.753 104.482 199.753 105.922ZM215.411 91.2344C215.651 91.1624 216.035 91.0904 216.563 91.0184C217.091 90.9224 217.631 90.8744 218.183 90.8744C218.711 90.8744 219.179 90.9104 219.587 90.9824C220.019 91.0544 220.379 91.1984 220.667 91.4144C220.955 91.6304 221.171 91.9304 221.315 92.3144C221.459 92.6744 221.531 93.1544 221.531 93.7544V97.2824C222.131 97.0424 222.695 96.8744 223.223 96.7784C223.775 96.6824 224.375 96.6344 225.023 96.6344C226.175 96.6344 227.267 96.8384 228.299 97.2464C229.331 97.6544 230.243 98.2544 231.035 99.0464C231.827 99.8144 232.451 100.774 232.907 101.926C233.363 103.078 233.591 104.41 233.591 105.922C233.591 107.482 233.351 108.85 232.871 110.026C232.415 111.178 231.767 112.138 230.927 112.906C230.087 113.674 229.055 114.262 227.831 114.67C226.631 115.054 225.299 115.246 223.835 115.246C222.251 115.246 220.907 115.054 219.803 114.67C218.699 114.31 217.763 113.854 216.995 113.302C215.939 112.558 215.411 111.598 215.411 110.422V91.2344ZM223.835 110.422C224.939 110.422 225.791 110.05 226.391 109.306C227.015 108.538 227.327 107.41 227.327 105.922C227.327 104.41 227.015 103.282 226.391 102.538C225.767 101.794 224.927 101.422 223.871 101.422C223.391 101.422 222.971 101.47 222.611 101.566C222.275 101.662 221.903 101.806 221.495 101.998V109.846C221.759 110.014 222.071 110.158 222.431 110.278C222.815 110.374 223.283 110.422 223.835 110.422ZM254.681 105.922C254.681 107.41 254.453 108.742 253.997 109.918C253.541 111.07 252.893 112.042 252.053 112.834C251.237 113.626 250.253 114.226 249.101 114.634C247.949 115.042 246.665 115.246 245.249 115.246C243.833 115.246 242.549 115.03 241.397 114.598C240.245 114.166 239.249 113.554 238.409 112.762C237.593 111.946 236.957 110.962 236.501 109.81C236.045 108.658 235.817 107.362 235.817 105.922C235.817 104.506 236.045 103.222 236.501 102.07C236.957 100.918 237.593 99.9464 238.409 99.1544C239.249 98.3384 240.245 97.7144 241.397 97.2824C242.549 96.8504 243.833 96.6344 245.249 96.6344C246.665 96.6344 247.949 96.8624 249.101 97.3184C250.253 97.7504 251.237 98.3744 252.053 99.1904C252.893 99.9824 253.541 100.954 253.997 102.106C254.453 103.258 254.681 104.53 254.681 105.922ZM242.081 105.922C242.081 107.386 242.357 108.514 242.909 109.306C243.485 110.074 244.277 110.458 245.285 110.458C246.293 110.458 247.061 110.062 247.589 109.27C248.141 108.478 248.417 107.362 248.417 105.922C248.417 104.482 248.141 103.378 247.589 102.61C247.037 101.818 246.257 101.422 245.249 101.422C244.241 101.422 243.461 101.818 242.909 102.61C242.357 103.378 242.081 104.482 242.081 105.922ZM263.787 108.658C263.787 109.282 263.979 109.726 264.363 109.99C264.771 110.254 265.335 110.386 266.055 110.386C266.415 110.386 266.787 110.362 267.171 110.314C267.555 110.242 267.891 110.158 268.179 110.062C268.395 110.326 268.575 110.626 268.719 110.962C268.887 111.274 268.971 111.658 268.971 112.114C268.971 113.026 268.623 113.77 267.927 114.346C267.255 114.922 266.055 115.21 264.327 115.21C262.215 115.21 260.583 114.73 259.431 113.77C258.303 112.81 257.739 111.25 257.739 109.09V93.6824C258.003 93.6104 258.375 93.5384 258.855 93.4664C259.359 93.3704 259.887 93.3224 260.439 93.3224C261.495 93.3224 262.311 93.5144 262.887 93.8984C263.487 94.2584 263.787 95.0384 263.787 96.2384V98.5424H268.503C268.647 98.8064 268.779 99.1424 268.899 99.5504C269.043 99.9344 269.115 100.366 269.115 100.846C269.115 101.686 268.923 102.298 268.539 102.682C268.179 103.042 267.687 103.222 267.063 103.222H263.787V108.658Z" fill="black"/>
<path d="M35.2715 139.554L35.4902 141.054L35.8105 139.703L38.0605 131.765H39.3262L41.5215 139.703L41.834 141.078L42.0762 139.546L43.8418 131.765H45.3496L42.5918 143.14H41.2246L38.8809 134.851L38.7012 133.984L38.5215 134.851L36.0918 143.14H34.7246L31.9746 131.765H33.4746L35.2715 139.554ZM50.0527 143.296C48.9069 143.296 47.9746 142.921 47.2559 142.171C46.5371 141.416 46.1777 140.408 46.1777 139.148V138.882C46.1777 138.044 46.3366 137.296 46.6543 136.64C46.9772 135.979 47.4251 135.463 47.998 135.093C48.5762 134.718 49.2012 134.531 49.873 134.531C50.972 134.531 51.8262 134.893 52.4355 135.617C53.0449 136.341 53.3496 137.377 53.3496 138.726V139.328H47.623C47.6439 140.161 47.8861 140.835 48.3496 141.351C48.8184 141.861 49.4121 142.117 50.1309 142.117C50.6413 142.117 51.0736 142.013 51.4277 141.804C51.7819 141.596 52.0918 141.32 52.3574 140.976L53.2402 141.664C52.5319 142.752 51.4694 143.296 50.0527 143.296ZM49.873 135.718C49.2897 135.718 48.8001 135.932 48.4043 136.359C48.0085 136.781 47.7637 137.375 47.6699 138.14H51.9043V138.031C51.8626 137.296 51.6647 136.729 51.3105 136.328C50.9564 135.921 50.4772 135.718 49.873 135.718ZM56.5996 143.14H55.1543V131.14H56.5996V143.14ZM62.3105 142.117C62.8262 142.117 63.2767 141.96 63.6621 141.648C64.0475 141.335 64.2611 140.945 64.3027 140.476H65.6699C65.6439 140.96 65.4772 141.421 65.1699 141.859C64.8626 142.296 64.4512 142.645 63.9355 142.906C63.4251 143.166 62.8835 143.296 62.3105 143.296C61.1595 143.296 60.2428 142.914 59.5605 142.148C58.8835 141.377 58.5449 140.325 58.5449 138.992V138.75C58.5449 137.927 58.696 137.195 58.998 136.554C59.3001 135.914 59.7324 135.416 60.2949 135.062C60.8626 134.708 61.5319 134.531 62.3027 134.531C63.2507 134.531 64.0371 134.815 64.6621 135.382C65.2923 135.95 65.6283 136.687 65.6699 137.593H64.3027C64.2611 137.046 64.0527 136.598 63.6777 136.25C63.3079 135.895 62.8496 135.718 62.3027 135.718C61.5684 135.718 60.998 135.984 60.5918 136.515C60.1908 137.041 59.9902 137.804 59.9902 138.804V139.078C59.9902 140.052 60.1908 140.802 60.5918 141.328C60.9928 141.854 61.5658 142.117 62.3105 142.117ZM66.9121 138.835C66.9121 138.007 67.0736 137.263 67.3965 136.601C67.7246 135.94 68.1777 135.429 68.7559 135.07C69.3392 134.71 70.0033 134.531 70.748 134.531C71.8991 134.531 72.8288 134.929 73.5371 135.726C74.2507 136.523 74.6074 137.583 74.6074 138.906V139.007C74.6074 139.83 74.4486 140.57 74.1309 141.226C73.8184 141.877 73.3678 142.385 72.7793 142.75C72.196 143.114 71.5241 143.296 70.7637 143.296C69.6178 143.296 68.6882 142.898 67.9746 142.101C67.2663 141.304 66.9121 140.25 66.9121 138.937V138.835ZM68.3652 139.007C68.3652 139.945 68.5814 140.697 69.0137 141.265C69.4512 141.833 70.0345 142.117 70.7637 142.117C71.498 142.117 72.0814 141.83 72.5137 141.257C72.946 140.679 73.1621 139.872 73.1621 138.835C73.1621 137.908 72.9408 137.158 72.498 136.585C72.0605 136.007 71.4772 135.718 70.748 135.718C70.0345 135.718 69.459 136.002 69.0215 136.57C68.584 137.138 68.3652 137.95 68.3652 139.007ZM77.7793 134.687L77.8184 135.625C78.4382 134.895 79.2741 134.531 80.3262 134.531C81.5085 134.531 82.3132 134.984 82.7402 135.89C83.0215 135.484 83.3861 135.156 83.834 134.906C84.2871 134.656 84.821 134.531 85.4355 134.531C87.2897 134.531 88.2324 135.513 88.2637 137.476V143.14H86.8184V137.562C86.8184 136.958 86.6803 136.507 86.4043 136.21C86.1283 135.908 85.6647 135.757 85.0137 135.757C84.4772 135.757 84.0319 135.919 83.6777 136.242C83.3236 136.559 83.1178 136.989 83.0605 137.531V143.14H81.6074V137.601C81.6074 136.372 81.0059 135.757 79.8027 135.757C78.8548 135.757 78.2064 136.161 77.8574 136.968V143.14H76.4121V134.687H77.7793ZM93.959 143.296C92.8132 143.296 91.8809 142.921 91.1621 142.171C90.4434 141.416 90.084 140.408 90.084 139.148V138.882C90.084 138.044 90.2428 137.296 90.5605 136.64C90.8835 135.979 91.3314 135.463 91.9043 135.093C92.4824 134.718 93.1074 134.531 93.7793 134.531C94.8783 134.531 95.7324 134.893 96.3418 135.617C96.9512 136.341 97.2559 137.377 97.2559 138.726V139.328H91.5293C91.5501 140.161 91.7923 140.835 92.2559 141.351C92.7246 141.861 93.3184 142.117 94.0371 142.117C94.5475 142.117 94.9798 142.013 95.334 141.804C95.6882 141.596 95.998 141.32 96.2637 140.976L97.1465 141.664C96.4382 142.752 95.3757 143.296 93.959 143.296ZM93.7793 135.718C93.196 135.718 92.7064 135.932 92.3105 136.359C91.9147 136.781 91.6699 137.375 91.5762 138.14H95.8105V138.031C95.7689 137.296 95.571 136.729 95.2168 136.328C94.8626 135.921 94.3835 135.718 93.7793 135.718ZM104.865 132.64V134.687H106.443V135.804H104.865V141.046C104.865 141.385 104.936 141.64 105.076 141.812C105.217 141.979 105.456 142.062 105.795 142.062C105.962 142.062 106.191 142.031 106.482 141.968V143.14C106.102 143.244 105.732 143.296 105.373 143.296C104.727 143.296 104.24 143.101 103.912 142.71C103.584 142.32 103.42 141.765 103.42 141.046V135.804H101.881V134.687H103.42V132.64H104.865ZM107.6 138.835C107.6 138.007 107.761 137.263 108.084 136.601C108.412 135.94 108.865 135.429 109.443 135.07C110.027 134.71 110.691 134.531 111.436 134.531C112.587 134.531 113.516 134.929 114.225 135.726C114.938 136.523 115.295 137.583 115.295 138.906V139.007C115.295 139.83 115.136 140.57 114.818 141.226C114.506 141.877 114.055 142.385 113.467 142.75C112.883 143.114 112.212 143.296 111.451 143.296C110.305 143.296 109.376 142.898 108.662 142.101C107.954 141.304 107.6 140.25 107.6 138.937V138.835ZM109.053 139.007C109.053 139.945 109.269 140.697 109.701 141.265C110.139 141.833 110.722 142.117 111.451 142.117C112.186 142.117 112.769 141.83 113.201 141.257C113.633 140.679 113.85 139.872 113.85 138.835C113.85 137.908 113.628 137.158 113.186 136.585C112.748 136.007 112.165 135.718 111.436 135.718C110.722 135.718 110.146 136.002 109.709 136.57C109.271 137.138 109.053 137.95 109.053 139.007ZM122.436 134.687L122.475 135.625C123.094 134.895 123.93 134.531 124.982 134.531C126.165 134.531 126.969 134.984 127.396 135.89C127.678 135.484 128.042 135.156 128.49 134.906C128.943 134.656 129.477 134.531 130.092 134.531C131.946 134.531 132.889 135.513 132.92 137.476V143.14H131.475V137.562C131.475 136.958 131.337 136.507 131.061 136.21C130.785 135.908 130.321 135.757 129.67 135.757C129.133 135.757 128.688 135.919 128.334 136.242C127.98 136.559 127.774 136.989 127.717 137.531V143.14H126.264V137.601C126.264 136.372 125.662 135.757 124.459 135.757C123.511 135.757 122.863 136.161 122.514 136.968V143.14H121.068V134.687H122.436ZM137.873 141.023L139.842 134.687H141.389L137.99 144.445C137.464 145.851 136.628 146.554 135.482 146.554L135.209 146.531L134.67 146.429V145.257L135.061 145.289C135.55 145.289 135.93 145.19 136.201 144.992C136.477 144.794 136.704 144.432 136.881 143.906L137.201 143.046L134.186 134.687H135.764L137.873 141.023ZM153.811 139.007C153.811 140.299 153.514 141.338 152.92 142.125C152.326 142.906 151.529 143.296 150.529 143.296C149.462 143.296 148.636 142.919 148.053 142.164L147.982 143.14H146.654V131.14H148.1V135.617C148.683 134.893 149.488 134.531 150.514 134.531C151.54 134.531 152.344 134.919 152.928 135.695C153.516 136.471 153.811 137.533 153.811 138.882V139.007ZM152.365 138.843C152.365 137.859 152.175 137.098 151.795 136.562C151.415 136.026 150.868 135.757 150.154 135.757C149.201 135.757 148.516 136.2 148.1 137.085V140.742C148.542 141.627 149.232 142.07 150.17 142.07C150.863 142.07 151.402 141.802 151.787 141.265C152.173 140.729 152.365 139.921 152.365 138.843ZM157.209 143.14H155.764V131.14H157.209V143.14ZM159.146 138.835C159.146 138.007 159.308 137.263 159.631 136.601C159.959 135.94 160.412 135.429 160.99 135.07C161.574 134.71 162.238 134.531 162.982 134.531C164.133 134.531 165.063 134.929 165.771 135.726C166.485 136.523 166.842 137.583 166.842 138.906V139.007C166.842 139.83 166.683 140.57 166.365 141.226C166.053 141.877 165.602 142.385 165.014 142.75C164.43 143.114 163.758 143.296 162.998 143.296C161.852 143.296 160.923 142.898 160.209 142.101C159.501 141.304 159.146 140.25 159.146 138.937V138.835ZM160.6 139.007C160.6 139.945 160.816 140.697 161.248 141.265C161.686 141.833 162.269 142.117 162.998 142.117C163.732 142.117 164.316 141.83 164.748 141.257C165.18 140.679 165.396 139.872 165.396 138.835C165.396 137.908 165.175 137.158 164.732 136.585C164.295 136.007 163.712 135.718 162.982 135.718C162.269 135.718 161.693 136.002 161.256 136.57C160.818 137.138 160.6 137.95 160.6 139.007ZM168.311 138.843C168.311 137.526 168.615 136.479 169.225 135.703C169.834 134.921 170.641 134.531 171.646 134.531C172.678 134.531 173.482 134.895 174.061 135.625L174.131 134.687H175.451V142.937C175.451 144.031 175.126 144.893 174.475 145.523C173.829 146.153 172.959 146.468 171.865 146.468C171.256 146.468 170.66 146.338 170.076 146.078C169.493 145.817 169.048 145.46 168.74 145.007L169.49 144.14C170.11 144.906 170.868 145.289 171.764 145.289C172.467 145.289 173.014 145.091 173.404 144.695C173.8 144.299 173.998 143.742 173.998 143.023V142.296C173.42 142.963 172.631 143.296 171.631 143.296C170.641 143.296 169.839 142.898 169.225 142.101C168.615 141.304 168.311 140.218 168.311 138.843ZM169.764 139.007C169.764 139.96 169.959 140.71 170.35 141.257C170.74 141.799 171.287 142.07 171.99 142.07C172.902 142.07 173.571 141.656 173.998 140.828V136.968C173.555 136.161 172.891 135.757 172.006 135.757C171.303 135.757 170.753 136.031 170.357 136.578C169.962 137.125 169.764 137.934 169.764 139.007ZM177.592 145.406L176.771 144.843C177.261 144.161 177.516 143.458 177.537 142.734V141.429H178.951V142.562C178.951 143.088 178.821 143.614 178.561 144.14C178.305 144.666 177.982 145.088 177.592 145.406ZM192.232 141.148L193.857 134.687H195.303L192.842 143.14H191.67L189.615 136.734L187.615 143.14H186.443L183.99 134.687H185.428L187.092 141.015L189.061 134.687H190.225L192.232 141.148ZM198.35 143.14H196.904V134.687H198.35V143.14ZM196.787 132.445C196.787 132.21 196.857 132.013 196.998 131.851C197.144 131.69 197.357 131.609 197.639 131.609C197.92 131.609 198.133 131.69 198.279 131.851C198.425 132.013 198.498 132.21 198.498 132.445C198.498 132.679 198.425 132.875 198.279 133.031C198.133 133.187 197.92 133.265 197.639 133.265C197.357 133.265 197.144 133.187 196.998 133.031C196.857 132.875 196.787 132.679 196.787 132.445ZM205.592 140.898C205.592 140.507 205.443 140.205 205.146 139.992C204.855 139.773 204.342 139.585 203.607 139.429C202.878 139.273 202.298 139.085 201.865 138.867C201.438 138.648 201.12 138.388 200.912 138.085C200.709 137.783 200.607 137.424 200.607 137.007C200.607 136.315 200.899 135.729 201.482 135.25C202.071 134.77 202.821 134.531 203.732 134.531C204.691 134.531 205.467 134.778 206.061 135.273C206.66 135.768 206.959 136.401 206.959 137.171H205.506C205.506 136.776 205.337 136.434 204.998 136.148C204.665 135.861 204.243 135.718 203.732 135.718C203.206 135.718 202.795 135.833 202.498 136.062C202.201 136.291 202.053 136.591 202.053 136.96C202.053 137.309 202.191 137.572 202.467 137.75C202.743 137.927 203.24 138.096 203.959 138.257C204.683 138.419 205.269 138.611 205.717 138.835C206.165 139.059 206.495 139.33 206.709 139.648C206.928 139.96 207.037 140.343 207.037 140.796C207.037 141.552 206.735 142.158 206.131 142.617C205.527 143.07 204.743 143.296 203.779 143.296C203.102 143.296 202.503 143.177 201.982 142.937C201.462 142.697 201.053 142.364 200.756 141.937C200.464 141.505 200.318 141.039 200.318 140.539H201.764C201.79 141.023 201.982 141.408 202.342 141.695C202.706 141.976 203.186 142.117 203.779 142.117C204.326 142.117 204.764 142.007 205.092 141.789C205.425 141.565 205.592 141.268 205.592 140.898ZM210.365 135.71C211.006 134.924 211.839 134.531 212.865 134.531C214.652 134.531 215.553 135.539 215.568 137.554V143.14H214.123V137.546C214.118 136.937 213.977 136.486 213.701 136.195C213.43 135.903 213.006 135.757 212.428 135.757C211.959 135.757 211.548 135.882 211.193 136.132C210.839 136.382 210.563 136.71 210.365 137.117V143.14H208.92V131.14H210.365V135.71ZM224.467 141.023L226.436 134.687H227.982L224.584 144.445C224.058 145.851 223.222 146.554 222.076 146.554L221.803 146.531L221.264 146.429V145.257L221.654 145.289C222.144 145.289 222.524 145.19 222.795 144.992C223.071 144.794 223.298 144.432 223.475 143.906L223.795 143.046L220.779 134.687H222.357L224.467 141.023ZM228.771 138.835C228.771 138.007 228.933 137.263 229.256 136.601C229.584 135.94 230.037 135.429 230.615 135.07C231.199 134.71 231.863 134.531 232.607 134.531C233.758 134.531 234.688 134.929 235.396 135.726C236.11 136.523 236.467 137.583 236.467 138.906V139.007C236.467 139.83 236.308 140.57 235.99 141.226C235.678 141.877 235.227 142.385 234.639 142.75C234.055 143.114 233.383 143.296 232.623 143.296C231.477 143.296 230.548 142.898 229.834 142.101C229.126 141.304 228.771 140.25 228.771 138.937V138.835ZM230.225 139.007C230.225 139.945 230.441 140.697 230.873 141.265C231.311 141.833 231.894 142.117 232.623 142.117C233.357 142.117 233.941 141.83 234.373 141.257C234.805 140.679 235.021 139.872 235.021 138.835C235.021 137.908 234.8 137.158 234.357 136.585C233.92 136.007 233.337 135.718 232.607 135.718C231.894 135.718 231.318 136.002 230.881 136.57C230.443 137.138 230.225 137.95 230.225 139.007ZM243.498 142.304C242.936 142.966 242.11 143.296 241.021 143.296C240.12 143.296 239.433 143.036 238.959 142.515C238.49 141.989 238.253 141.213 238.248 140.187V134.687H239.693V140.148C239.693 141.429 240.214 142.07 241.256 142.07C242.36 142.07 243.094 141.658 243.459 140.835V134.687H244.904V143.14H243.529L243.498 142.304ZM256.295 143.14C256.212 142.973 256.144 142.677 256.092 142.25C255.42 142.947 254.618 143.296 253.686 143.296C252.852 143.296 252.167 143.062 251.631 142.593C251.1 142.119 250.834 141.52 250.834 140.796C250.834 139.916 251.167 139.234 251.834 138.75C252.506 138.26 253.449 138.015 254.662 138.015H256.068V137.351C256.068 136.846 255.917 136.445 255.615 136.148C255.313 135.846 254.868 135.695 254.279 135.695C253.764 135.695 253.331 135.825 252.982 136.085C252.633 136.346 252.459 136.661 252.459 137.031H251.006C251.006 136.609 251.154 136.203 251.451 135.812C251.753 135.416 252.16 135.104 252.67 134.875C253.186 134.645 253.751 134.531 254.365 134.531C255.339 134.531 256.102 134.776 256.654 135.265C257.206 135.75 257.493 136.419 257.514 137.273V141.164C257.514 141.94 257.613 142.557 257.811 143.015V143.14H256.295ZM253.896 142.039C254.35 142.039 254.779 141.921 255.186 141.687C255.592 141.453 255.886 141.148 256.068 140.773V139.039H254.936C253.165 139.039 252.279 139.557 252.279 140.593C252.279 141.046 252.43 141.401 252.732 141.656C253.035 141.911 253.423 142.039 253.896 142.039ZM263.404 138.843C263.404 137.526 263.709 136.479 264.318 135.703C264.928 134.921 265.735 134.531 266.74 134.531C267.771 134.531 268.576 134.895 269.154 135.625L269.225 134.687H270.545V142.937C270.545 144.031 270.219 144.893 269.568 145.523C268.923 146.153 268.053 146.468 266.959 146.468C266.35 146.468 265.753 146.338 265.17 146.078C264.587 145.817 264.141 145.46 263.834 145.007L264.584 144.14C265.204 144.906 265.962 145.289 266.857 145.289C267.561 145.289 268.107 145.091 268.498 144.695C268.894 144.299 269.092 143.742 269.092 143.023V142.296C268.514 142.963 267.725 143.296 266.725 143.296C265.735 143.296 264.933 142.898 264.318 142.101C263.709 141.304 263.404 140.218 263.404 138.843ZM264.857 139.007C264.857 139.96 265.053 140.71 265.443 141.257C265.834 141.799 266.381 142.07 267.084 142.07C267.995 142.07 268.665 141.656 269.092 140.828V136.968C268.649 136.161 267.985 135.757 267.1 135.757C266.396 135.757 265.847 136.031 265.451 136.578C265.055 137.125 264.857 137.934 264.857 139.007ZM272.35 138.835C272.35 138.007 272.511 137.263 272.834 136.601C273.162 135.94 273.615 135.429 274.193 135.07C274.777 134.71 275.441 134.531 276.186 134.531C277.337 134.531 278.266 134.929 278.975 135.726C279.688 136.523 280.045 137.583 280.045 138.906V139.007C280.045 139.83 279.886 140.57 279.568 141.226C279.256 141.877 278.805 142.385 278.217 142.75C277.633 143.114 276.962 143.296 276.201 143.296C275.055 143.296 274.126 142.898 273.412 142.101C272.704 141.304 272.35 140.25 272.35 138.937V138.835ZM273.803 139.007C273.803 139.945 274.019 140.697 274.451 141.265C274.889 141.833 275.472 142.117 276.201 142.117C276.936 142.117 277.519 141.83 277.951 141.257C278.383 140.679 278.6 139.872 278.6 138.835C278.6 137.908 278.378 137.158 277.936 136.585C277.498 136.007 276.915 135.718 276.186 135.718C275.472 135.718 274.896 136.002 274.459 136.57C274.021 137.138 273.803 137.95 273.803 139.007ZM281.475 138.835C281.475 138.007 281.636 137.263 281.959 136.601C282.287 135.94 282.74 135.429 283.318 135.07C283.902 134.71 284.566 134.531 285.311 134.531C286.462 134.531 287.391 134.929 288.1 135.726C288.813 136.523 289.17 137.583 289.17 138.906V139.007C289.17 139.83 289.011 140.57 288.693 141.226C288.381 141.877 287.93 142.385 287.342 142.75C286.758 143.114 286.087 143.296 285.326 143.296C284.18 143.296 283.251 142.898 282.537 142.101C281.829 141.304 281.475 140.25 281.475 138.937V138.835ZM282.928 139.007C282.928 139.945 283.144 140.697 283.576 141.265C284.014 141.833 284.597 142.117 285.326 142.117C286.061 142.117 286.644 141.83 287.076 141.257C287.508 140.679 287.725 139.872 287.725 138.835C287.725 137.908 287.503 137.158 287.061 136.585C286.623 136.007 286.04 135.718 285.311 135.718C284.597 135.718 284.021 136.002 283.584 136.57C283.146 137.138 282.928 137.95 282.928 139.007ZM290.631 138.843C290.631 137.546 290.938 136.505 291.553 135.718C292.167 134.927 292.972 134.531 293.967 134.531C294.956 134.531 295.74 134.869 296.318 135.546V131.14H297.764V143.14H296.436L296.365 142.234C295.787 142.942 294.982 143.296 293.951 143.296C292.972 143.296 292.173 142.895 291.553 142.093C290.938 141.291 290.631 140.244 290.631 138.953V138.843ZM292.076 139.007C292.076 139.966 292.274 140.716 292.67 141.257C293.066 141.799 293.613 142.07 294.311 142.07C295.227 142.07 295.896 141.658 296.318 140.835V136.953C295.886 136.156 295.222 135.757 294.326 135.757C293.618 135.757 293.066 136.031 292.67 136.578C292.274 137.125 292.076 137.934 292.076 139.007ZM305.943 132.64V134.687H307.521V135.804H305.943V141.046C305.943 141.385 306.014 141.64 306.154 141.812C306.295 141.979 306.535 142.062 306.873 142.062C307.04 142.062 307.269 142.031 307.561 141.968V143.14C307.18 143.244 306.811 143.296 306.451 143.296C305.805 143.296 305.318 143.101 304.99 142.71C304.662 142.32 304.498 141.765 304.498 141.046V135.804H302.959V134.687H304.498V132.64H305.943ZM310.787 143.14H309.342V134.687H310.787V143.14ZM309.225 132.445C309.225 132.21 309.295 132.013 309.436 131.851C309.581 131.69 309.795 131.609 310.076 131.609C310.357 131.609 310.571 131.69 310.717 131.851C310.863 132.013 310.936 132.21 310.936 132.445C310.936 132.679 310.863 132.875 310.717 133.031C310.571 133.187 310.357 133.265 310.076 133.265C309.795 133.265 309.581 133.187 309.436 133.031C309.295 132.875 309.225 132.679 309.225 132.445ZM314.467 134.687L314.506 135.625C315.126 134.895 315.962 134.531 317.014 134.531C318.196 134.531 319.001 134.984 319.428 135.89C319.709 135.484 320.074 135.156 320.521 134.906C320.975 134.656 321.508 134.531 322.123 134.531C323.977 134.531 324.92 135.513 324.951 137.476V143.14H323.506V137.562C323.506 136.958 323.368 136.507 323.092 136.21C322.816 135.908 322.352 135.757 321.701 135.757C321.165 135.757 320.719 135.919 320.365 136.242C320.011 136.559 319.805 136.989 319.748 137.531V143.14H318.295V137.601C318.295 136.372 317.693 135.757 316.49 135.757C315.542 135.757 314.894 136.161 314.545 136.968V143.14H313.1V134.687H314.467ZM330.646 143.296C329.501 143.296 328.568 142.921 327.85 142.171C327.131 141.416 326.771 140.408 326.771 139.148V138.882C326.771 138.044 326.93 137.296 327.248 136.64C327.571 135.979 328.019 135.463 328.592 135.093C329.17 134.718 329.795 134.531 330.467 134.531C331.566 134.531 332.42 134.893 333.029 135.617C333.639 136.341 333.943 137.377 333.943 138.726V139.328H328.217C328.238 140.161 328.48 140.835 328.943 141.351C329.412 141.861 330.006 142.117 330.725 142.117C331.235 142.117 331.667 142.013 332.021 141.804C332.376 141.596 332.686 141.32 332.951 140.976L333.834 141.664C333.126 142.752 332.063 143.296 330.646 143.296ZM330.467 135.718C329.883 135.718 329.394 135.932 328.998 136.359C328.602 136.781 328.357 137.375 328.264 138.14H332.498V138.031C332.456 137.296 332.258 136.729 331.904 136.328C331.55 135.921 331.071 135.718 330.467 135.718ZM341.037 135.71C341.678 134.924 342.511 134.531 343.537 134.531C345.324 134.531 346.225 135.539 346.24 137.554V143.14H344.795V137.546C344.79 136.937 344.649 136.486 344.373 136.195C344.102 135.903 343.678 135.757 343.1 135.757C342.631 135.757 342.219 135.882 341.865 136.132C341.511 136.382 341.235 136.71 341.037 137.117V143.14H339.592V131.14H341.037V135.71ZM351.912 143.296C350.766 143.296 349.834 142.921 349.115 142.171C348.396 141.416 348.037 140.408 348.037 139.148V138.882C348.037 138.044 348.196 137.296 348.514 136.64C348.837 135.979 349.285 135.463 349.857 135.093C350.436 134.718 351.061 134.531 351.732 134.531C352.831 134.531 353.686 134.893 354.295 135.617C354.904 136.341 355.209 137.377 355.209 138.726V139.328H349.482C349.503 140.161 349.745 140.835 350.209 141.351C350.678 141.861 351.271 142.117 351.99 142.117C352.501 142.117 352.933 142.013 353.287 141.804C353.641 141.596 353.951 141.32 354.217 140.976L355.1 141.664C354.391 142.752 353.329 143.296 351.912 143.296ZM351.732 135.718C351.149 135.718 350.66 135.932 350.264 136.359C349.868 136.781 349.623 137.375 349.529 138.14H353.764V138.031C353.722 137.296 353.524 136.729 353.17 136.328C352.816 135.921 352.337 135.718 351.732 135.718ZM360.975 135.984C360.756 135.947 360.519 135.929 360.264 135.929C359.316 135.929 358.673 136.333 358.334 137.14V143.14H356.889V134.687H358.295L358.318 135.664C358.792 134.908 359.464 134.531 360.334 134.531C360.615 134.531 360.829 134.567 360.975 134.64V135.984ZM365.662 143.296C364.516 143.296 363.584 142.921 362.865 142.171C362.146 141.416 361.787 140.408 361.787 139.148V138.882C361.787 138.044 361.946 137.296 362.264 136.64C362.587 135.979 363.035 135.463 363.607 135.093C364.186 134.718 364.811 134.531 365.482 134.531C366.581 134.531 367.436 134.893 368.045 135.617C368.654 136.341 368.959 137.377 368.959 138.726V139.328H363.232C363.253 140.161 363.495 140.835 363.959 141.351C364.428 141.861 365.021 142.117 365.74 142.117C366.251 142.117 366.683 142.013 367.037 141.804C367.391 141.596 367.701 141.32 367.967 140.976L368.85 141.664C368.141 142.752 367.079 143.296 365.662 143.296ZM365.482 135.718C364.899 135.718 364.41 135.932 364.014 136.359C363.618 136.781 363.373 137.375 363.279 138.14H367.514V138.031C367.472 137.296 367.274 136.729 366.92 136.328C366.566 135.921 366.087 135.718 365.482 135.718ZM372.256 139.929H370.951L370.85 131.765H372.365L372.256 139.929ZM370.795 142.414C370.795 142.179 370.865 141.984 371.006 141.828C371.152 141.666 371.365 141.585 371.646 141.585C371.928 141.585 372.141 141.666 372.287 141.828C372.433 141.984 372.506 142.179 372.506 142.414C372.506 142.648 372.433 142.843 372.287 143C372.141 143.151 371.928 143.226 371.646 143.226C371.365 143.226 371.152 143.151 371.006 143C370.865 142.843 370.795 142.648 370.795 142.414Z" fill="black"/>
<g clip-path="url(#clip0)">
<path d="M468.367 20.0596C474.476 36.3925 494.467 33.9347 508.032 30.4461C511.285 29.5739 514.616 28.6225 517.552 26.9575C520.487 25.2925 522.946 22.5968 523.898 19.346C524.929 15.6989 523.739 11.6553 521.677 8.48384C519.773 5.55026 516.996 2.45811 514.061 0.555243C512.792 3.80597 508.27 4.04383 505.176 4.04383C500.813 4.04383 496.847 2.37882 492.801 1.18953C488.676 0.000240743 484.233 -0.237617 480.108 0.872387C471.779 2.85454 465.115 11.3381 468.367 20.0596Z" fill="black"/>
<path d="M480.822 129.395C480.584 129.395 480.505 129.395 480.346 129.474L480.822 129.395Z" fill="black"/>
<path d="M480.822 129.395C480.584 129.395 480.505 129.395 480.346 129.474L480.822 129.395Z" fill="black"/>
<path d="M463.211 49.8708V34.5686C463.211 21.5657 475.348 10.9414 490.183 10.9414C497.56 10.9414 504.303 13.5578 509.222 17.8393C514.14 22.1207 517.155 27.9879 517.155 34.4894V49.7916" stroke="black" stroke-width="2" stroke-miterlimit="10"/>
<path d="M517.155 66.4419V84.1227C517.155 97.1256 505.017 107.75 490.183 107.75C475.348 107.75 463.211 97.1256 463.211 84.1227V66.4419" stroke="black" stroke-width="2" stroke-miterlimit="10"/>
<path d="M501.21 105.609H501.289V130.425" stroke="black" stroke-width="2" stroke-miterlimit="10"/>
<path d="M481.457 130.108V106.243" stroke="black" stroke-width="2" stroke-miterlimit="10"/>
<path d="M474.985 58.0244C477.194 58.0244 478.985 57.3528 478.985 56.5244C478.985 55.696 477.194 55.0244 474.985 55.0244C472.776 55.0244 470.985 55.696 470.985 56.5244C470.985 57.3528 472.776 58.0244 474.985 58.0244Z" fill="black"/>
<path d="M506.955 58.0244C509.164 58.0244 510.955 57.3528 510.955 56.5244C510.955 55.696 509.164 55.0244 506.955 55.0244C504.746 55.0244 502.955 55.696 502.955 56.5244C502.955 57.3528 504.746 58.0244 506.955 58.0244Z" fill="black"/>
<path d="M461.386 63.3496H459.8C458.054 63.3496 456.468 64.0632 455.278 65.1732C454.167 66.3625 453.453 67.9482 453.453 69.6925C453.453 73.1811 456.309 76.0354 459.8 76.0354H462.973" stroke="black" stroke-width="2" stroke-miterlimit="10"/>
<path d="M518.9 63.3496H520.487C523.977 63.3496 526.833 66.2039 526.833 69.6925C526.833 71.4368 526.119 73.0225 524.929 74.2118C523.818 75.3218 522.232 76.0354 520.487 76.0354H517.313" stroke="black" stroke-width="2" stroke-miterlimit="10"/>
<path d="M463.052 67.7896V71.5953H460.514C459.482 71.5953 458.61 70.7231 458.61 69.6924C458.61 69.1374 458.848 68.6617 459.165 68.3446C459.482 68.0274 459.958 67.7896 460.514 67.7896H463.052Z" fill="black"/>
<path d="M517.313 71.5953V67.7896H519.852C520.883 67.7896 521.756 68.6617 521.756 69.6924C521.756 70.2474 521.518 70.7231 521.201 71.0403C520.883 71.3574 520.407 71.5953 519.852 71.5953H517.313Z" fill="black"/>
<path d="M490.183 71.2783C490.183 71.2783 486.216 77.6212 492.563 76.0355" stroke="black" stroke-width="2" stroke-miterlimit="10" stroke-linecap="round"/>
<path d="M483.043 89.5933C483.043 89.5933 489.39 97.4426 498.116 89.5933" stroke="black" stroke-width="2" stroke-miterlimit="10" stroke-linecap="round"/>
<path d="M467.971 41.9423C467.971 41.9423 472.334 37.5816 479.87 41.1495" stroke="black" stroke-width="3" stroke-miterlimit="10" stroke-linecap="round"/>
<path d="M512.395 41.9423C512.395 41.9423 508.032 37.5816 500.496 41.1495" stroke="black" stroke-width="3" stroke-miterlimit="10" stroke-linecap="round"/>
<path d="M463.052 32.9039C463.052 32.9039 452.105 24.4203 456.865 14.1131C461.624 3.80593 476.697 9.35596 476.697 9.35596C476.697 9.35596 482.726 35.0446 463.052 32.9039Z" fill="black"/>
<path d="M408.633 96.2541C407.681 93.1619 406.332 91.6555 405.618 87.1362C404.111 78.0976 404.666 69.4554 400.938 69.7725C399.43 69.9311 398.954 71.5168 399.034 72.389L400.224 86.6604C399.748 88.3255 398.875 87.6912 398.875 87.6912C398.875 87.6912 395.781 75.0054 395.385 72.7061C394.988 70.4861 393.877 69.2175 392.37 69.3761C389.752 69.6139 390.784 72.7854 391.022 73.9747L393.798 89.3562C394.036 90.8626 392.449 90.3869 392.449 90.3869L386.262 75.0054C385.548 73.3404 384.199 73.7368 384.199 73.7368C381.74 74.2918 382.692 76.5118 382.692 76.5118L388.007 92.8448C388.007 92.924 388.007 93.0033 388.007 93.0826C388.086 93.9548 386.976 94.4305 386.5 93.6376C384.834 91.1005 381.581 87.0569 378.884 85.4712C377.536 84.6783 376.584 84.8369 376.028 85.2333C375.473 85.6297 375.394 86.3433 375.79 86.8983L385.707 101.249C388.007 116.472 397.289 118.296 397.289 118.296L402.842 140.02L411.013 174.271L412.044 178.632C412.996 182.834 416.804 185.847 421.087 185.847H425.45C428.544 185.847 430.686 182.834 429.734 179.98L409.981 119.881L409.109 114.648C411.013 112.508 412.282 107.988 412.916 104.738C413.313 102.993 413.472 101.17 413.313 99.4255C412.996 95.0648 415.931 87.2154 415.931 87.2154C415.693 85.709 412.837 86.9776 412.837 86.9776C409.664 88.0876 408.871 93.1619 408.633 95.9369C408.553 97.1262 407.998 98.1569 407.205 98.9498C402.445 103.628 402.048 108.861 402.048 108.861" stroke="black" stroke-width="2" stroke-miterlimit="10"/>
<path d="M395.305 72.7847C394.909 70.5647 394.195 68.8997 392.291 69.4547C389.752 70.1683 390.704 72.864 390.942 74.0533" stroke="black" stroke-width="2" stroke-miterlimit="10"/>
<path d="M549.68 190.207V191H532.386L528.737 170.782V191H453.85V179.503C453.85 176.728 453.85 173.953 453.929 171.178C452.263 172.526 450.439 173.636 448.297 174.825L431.717 185.925C431.638 186.005 431.559 186.005 431.479 186.084C430.765 186.48 429.972 186.718 429.099 186.718L425.651 186.849C425.651 186.849 429.337 185.45 430.21 181.961L424.26 162.14C432.748 155.083 446.472 134.707 472.81 130.505C473.92 130.267 475.11 130.029 476.379 129.87C477.569 129.712 478.759 129.553 480.108 129.474L480.981 129.395V129.553L480.505 129.632C480.663 129.632 480.743 129.632 480.901 129.553H480.981C481.139 129.553 481.298 129.553 481.457 129.474H481.536L482.329 129.395V132.407C482.329 132.804 482.488 133.28 482.884 133.676C484.074 135.024 486.772 136.055 490.024 136.292C490.579 136.372 491.135 136.372 491.69 136.372C491.769 136.372 491.849 136.372 491.849 136.372H491.928C495.101 136.292 498.036 135.42 499.544 134.152C500.02 133.755 500.496 133.2 500.496 132.407V129.632L501.289 129.791H501.447C501.685 129.791 501.844 129.87 502.082 129.87V129.632L503.113 129.791C532.227 133.359 549.68 155.955 549.68 190.207Z" fill="black"/>
<path d="M431.638 185.846L431.4 186.005C431.479 186.005 431.559 185.926 431.638 185.846Z" fill="black"/>
</g>
<defs>
<clipPath id="clip0">
<rect width="175" height="191" fill="white" transform="translate(374.68)"/>
</clipPath>
</defs>
</svg>
